<?xml version="1.0" encoding="UTF-8" standalone="no"?>
<!DOCTYPE svg PUBLIC "-//W3C//DTD SVG 1.1//EN"
 "http://www.w3.org/Graphics/SVG/1.1/DTD/svg11.dtd">
<!-- Generated by graphviz version 2.40.1 (20161225.0304)
 -->
<!-- Title: dependencies Pages: 1 -->
<svg width="753pt" height="360pt"
 viewBox="0.00 0.00 753.00 360.00" xmlns="http://www.w3.org/2000/svg" xmlns:xlink="http://www.w3.org/1999/xlink">
<g id="graph0" class="graph" transform="scale(1 1) rotate(0) translate(4 356)">
<title>dependencies</title>
<polygon fill="#ffffff" stroke="transparent" points="-4,4 -4,-356 749,-356 749,4 -4,4"/>
<text text-anchor="start" x="351.5091" y="-42.4" font-family="sans-serif" font-weight="bold" font-size="14.00" fill="#000000">Legend</text>
<polygon fill="#ffffb3" stroke="transparent" points="138.5,-10 138.5,-30 158.5,-30 158.5,-10 138.5,-10"/>
<text text-anchor="start" x="162.129" y="-15.4" font-family="sans-serif" font-size="14.00" fill="#000000"> &#160;Declarations</text>
<polygon fill="#8dd3c7" stroke="transparent" points="251.5,-10 251.5,-30 271.5,-30 271.5,-10 251.5,-10"/>
<text text-anchor="start" x="275.2251" y="-15.4" font-family="sans-serif" font-size="14.00" fill="#000000"> &#160;Module</text>
<polygon fill="#80b1d3" stroke="transparent" points="337.5,-10 337.5,-30 357.5,-30 357.5,-10 337.5,-10"/>
<text text-anchor="start" x="361.2812" y="-15.4" font-family="sans-serif" font-size="14.00" fill="#000000"> &#160;Bootstrap</text>
<polygon fill="#fdb462" stroke="transparent" points="434.5,-10 434.5,-30 454.5,-30 454.5,-10 434.5,-10"/>
<text text-anchor="start" x="458.1732" y="-15.4" font-family="sans-serif" font-size="14.00" fill="#000000"> &#160;Providers</text>
<polygon fill="#fb8072" stroke="transparent" points="530.5,-10 530.5,-30 550.5,-30 550.5,-10 530.5,-10"/>
<text text-anchor="start" x="554.2258" y="-15.4" font-family="sans-serif" font-size="14.00" fill="#000000"> &#160;Exports</text>
<g id="clust1" class="cluster">
<title>cluster_AppModule</title>
<polygon fill="none" stroke="#000000" stroke-dasharray="1,5" points="158,-146 158,-344 737,-344 737,-146 158,-146"/>
</g>
<g id="clust3" class="cluster">
<title>cluster_AppModule_imports</title>
<polygon fill="none" stroke="#000000" points="166,-154 166,-206 729,-206 729,-154 166,-154"/>
</g>
<g id="clust5" class="cluster">
<title>cluster_AppModule_bootstrap</title>
<polygon fill="none" stroke="#000000" points="362,-284 362,-336 486,-336 486,-284 362,-284"/>
</g>
<g id="clust7" class="cluster">
<title>cluster_SharedModule</title>
<polygon fill="none" stroke="#000000" stroke-dasharray="1,5" points="8,-70 8,-138 418,-138 418,-70 8,-70"/>
</g>
<g id="clust9" class="cluster">
<title>cluster_SharedModule_imports</title>
<polygon fill="none" stroke="#000000" points="166,-78 166,-130 410,-130 410,-78 166,-78"/>
</g>
<g id="clust10" class="cluster">
<title>cluster_SharedModule_exports</title>
<polygon fill="none" stroke="#000000" points="16,-78 16,-130 158,-130 158,-78 16,-78"/>
</g>
<!-- BrowserModule -->
<g id="node1" class="node">
<title>BrowserModule</title>
<polygon fill="#8dd3c7" stroke="#000000" points="721.4734,-198 718.4734,-202 697.4734,-202 694.4734,-198 614.5266,-198 614.5266,-162 721.4734,-162 721.4734,-198"/>
<text text-anchor="middle" x="668" y="-175.8" font-family="Times,serif" font-size="14.00" fill="#000000">BrowserModule</text>
</g>
<!-- AppModule -->
<g id="node6" class="node">
<title>AppModule</title>
<polygon fill="#8dd3c7" stroke="#000000" points="465.6571,-263 462.6571,-267 441.6571,-267 438.6571,-263 382.3429,-263 382.3429,-227 465.6571,-227 465.6571,-263"/>
<text text-anchor="middle" x="424" y="-240.8" font-family="Times,serif" font-size="14.00" fill="#000000">AppModule</text>
</g>
<!-- BrowserModule&#45;&gt;AppModule -->
<g id="edge1" class="edge">
<title>BrowserModule&#45;&gt;AppModule</title>
<path fill="none" stroke="#000000" d="M668,-198.2843C668,-219.3211 668,-251 668,-251 668,-251 475.6679,-251 475.6679,-251"/>
<polygon fill="#000000" stroke="#000000" points="475.6679,-247.5001 465.6679,-251 475.6678,-254.5001 475.6679,-247.5001"/>
</g>
<!-- FormsModule -->
<g id="node2" class="node">
<title>FormsModule</title>
<polygon fill="#8dd3c7" stroke="#000000" points="596.8288,-198 593.8288,-202 572.8288,-202 569.8288,-198 501.1712,-198 501.1712,-162 596.8288,-162 596.8288,-198"/>
<text text-anchor="middle" x="549" y="-175.8" font-family="Times,serif" font-size="14.00" fill="#000000">FormsModule</text>
</g>
<!-- FormsModule&#45;&gt;AppModule -->
<g id="edge2" class="edge">
<title>FormsModule&#45;&gt;AppModule</title>
<path fill="none" stroke="#000000" d="M549,-198.0225C549,-215.3734 549,-239 549,-239 549,-239 475.9709,-239 475.9709,-239"/>
<polygon fill="#000000" stroke="#000000" points="475.971,-235.5001 465.9709,-239 475.9709,-242.5001 475.971,-235.5001"/>
</g>
<!-- HttpClientModule -->
<g id="node3" class="node">
<title>HttpClientModule</title>
<polygon fill="#8dd3c7" stroke="#000000" points="483.1611,-198 480.1611,-202 459.1611,-202 456.1611,-198 364.8389,-198 364.8389,-162 483.1611,-162 483.1611,-198"/>
<text text-anchor="middle" x="424" y="-175.8" font-family="Times,serif" font-size="14.00" fill="#000000">HttpClientModule</text>
</g>
<!-- HttpClientModule&#45;&gt;AppModule -->
<g id="edge3" class="edge">
<title>HttpClientModule&#45;&gt;AppModule</title>
<path fill="none" stroke="#000000" d="M424,-198.1061C424,-198.1061 424,-216.991 424,-216.991"/>
<polygon fill="#000000" stroke="#000000" points="420.5001,-216.9909 424,-226.991 427.5001,-216.991 420.5001,-216.9909"/>
</g>
<!-- routing -->
<g id="node4" class="node">
<title>routing</title>
<polygon fill="#8dd3c7" stroke="#000000" points="346.4435,-198 343.4435,-202 322.4435,-202 319.4435,-198 289.5565,-198 289.5565,-162 346.4435,-162 346.4435,-198"/>
<text text-anchor="middle" x="318" y="-175.8" font-family="Times,serif" font-size="14.00" fill="#000000">routing</text>
</g>
<!-- routing&#45;&gt;AppModule -->
<g id="edge4" class="edge">
<title>routing&#45;&gt;AppModule</title>
<path fill="none" stroke="#000000" d="M318,-198.0225C318,-215.3734 318,-239 318,-239 318,-239 372.106,-239 372.106,-239"/>
<polygon fill="#000000" stroke="#000000" points="372.106,-242.5001 382.106,-239 372.106,-235.5001 372.106,-242.5001"/>
</g>
<!-- SharedModule -->
<g id="node5" class="node">
<title>SharedModule</title>
<polygon fill="#8dd3c7" stroke="#000000" points="272.4231,-198 269.4231,-202 248.4231,-202 245.4231,-198 173.5769,-198 173.5769,-162 272.4231,-162 272.4231,-198"/>
<text text-anchor="middle" x="223" y="-175.8" font-family="Times,serif" font-size="14.00" fill="#000000">SharedModule</text>
</g>
<!-- SharedModule&#45;&gt;AppModule -->
<g id="edge5" class="edge">
<title>SharedModule&#45;&gt;AppModule</title>
<path fill="none" stroke="#000000" d="M223,-198.2843C223,-219.3211 223,-251 223,-251 223,-251 371.8638,-251 371.8638,-251"/>
<polygon fill="#000000" stroke="#000000" points="371.8638,-254.5001 381.8638,-251 371.8638,-247.5001 371.8638,-254.5001"/>
</g>
<!-- NavbarComponent  -->
<g id="node10" class="node">
<title>NavbarComponent </title>
<polygon fill="#fb8072" stroke="#000000" points="150.0288,-122 23.9712,-122 23.9712,-86 150.0288,-86 150.0288,-122"/>
<text text-anchor="middle" x="87" y="-99.8" font-family="Times,serif" font-size="14.00" fill="#000000">NavbarComponent </text>
</g>
<!-- SharedModule&#45;&gt;NavbarComponent  -->
<g id="edge9" class="edge">
<title>SharedModule&#45;&gt;NavbarComponent </title>
<path fill="none" stroke="#000000" stroke-dasharray="5,2" d="M173.5162,-180C134.6304,-180 87,-180 87,-180 87,-180 87,-132.0109 87,-132.0109"/>
<polygon fill="#000000" stroke="#000000" points="90.5001,-132.0109 87,-122.0109 83.5001,-132.011 90.5001,-132.0109"/>
</g>
<!-- AppComponent  -->
<g id="node7" class="node">
<title>AppComponent </title>
<polygon fill="#80b1d3" stroke="#000000" points="478.439,-328 369.561,-328 369.561,-292 478.439,-292 478.439,-328"/>
<text text-anchor="middle" x="424" y="-305.8" font-family="Times,serif" font-size="14.00" fill="#000000">AppComponent </text>
</g>
<!-- AppModule&#45;&gt;AppComponent  -->
<g id="edge6" class="edge">
<title>AppModule&#45;&gt;AppComponent </title>
<path fill="none" stroke="#000000" stroke-dasharray="1,5" d="M424,-263.1061C424,-263.1061 424,-281.991 424,-281.991"/>
<polygon fill="#000000" stroke="#000000" points="420.5001,-281.9909 424,-291.991 427.5001,-281.991 420.5001,-281.9909"/>
</g>
<!-- CommonModule -->
<g id="node8" class="node">
<title>CommonModule</title>
<polygon fill="#8dd3c7" stroke="#000000" points="401.6681,-122 398.6681,-126 377.6681,-126 374.6681,-122 290.3319,-122 290.3319,-86 401.6681,-86 401.6681,-122"/>
<text text-anchor="middle" x="346" y="-99.8" font-family="Times,serif" font-size="14.00" fill="#000000">CommonModule</text>
</g>
<!-- CommonModule&#45;&gt;SharedModule -->
<g id="edge7" class="edge">
<title>CommonModule&#45;&gt;SharedModule</title>
<path fill="none" stroke="#000000" d="M290.3087,-104C284.6859,-104 280.9951,-104 280.9951,-104 280.9951,-104 280.9951,-180 280.9951,-180 280.9951,-180 280.1394,-180 280.1394,-180"/>
<polygon fill="#000000" stroke="#000000" points="282.4378,-176.5001 272.4377,-180 282.4377,-183.5001 282.4378,-176.5001"/>
</g>
<!-- RouterModule -->
<g id="node9" class="node">
<title>RouterModule</title>
<polygon fill="#8dd3c7" stroke="#000000" points="271.6528,-122 268.6528,-126 247.6528,-126 244.6528,-122 174.3472,-122 174.3472,-86 271.6528,-86 271.6528,-122"/>
<text text-anchor="middle" x="223" y="-99.8" font-family="Times,serif" font-size="14.00" fill="#000000">RouterModule</text>
</g>
<!-- RouterModule&#45;&gt;SharedModule -->
<g id="edge8" class="edge">
<title>RouterModule&#45;&gt;SharedModule</title>
<path fill="none" stroke="#000000" d="M223,-122.0109C223,-122.0109 223,-151.855 223,-151.855"/>
<polygon fill="#000000" stroke="#000000" points="219.5001,-151.8549 223,-161.855 226.5001,-151.855 219.5001,-151.8549"/>
</g>
</g>
</svg>
