<?xml version="1.0" encoding="UTF-8" standalone="no"?>
<!DOCTYPE svg PUBLIC "-//W3C//DTD SVG 1.1//EN"
 "http://www.w3.org/Graphics/SVG/1.1/DTD/svg11.dtd">
<!-- Generated by graphviz version 2.40.1 (20161225.0304)
 -->
<!-- Title: dependencies Pages: 1 -->
<svg width="3132pt" height="284pt"
 viewBox="0.00 0.00 3132.00 284.00" xmlns="http://www.w3.org/2000/svg" xmlns:xlink="http://www.w3.org/1999/xlink">
<g id="graph0" class="graph" transform="scale(1 1) rotate(0) translate(4 280)">
<title>dependencies</title>
<polygon fill="#ffffff" stroke="transparent" points="-4,4 -4,-280 3128,-280 3128,4 -4,4"/>
<text text-anchor="start" x="1541.0091" y="-42.4" font-family="sans-serif" font-weight="bold" font-size="14.00" fill="#000000">Legend</text>
<polygon fill="#ffffb3" stroke="transparent" points="1328,-10 1328,-30 1348,-30 1348,-10 1328,-10"/>
<text text-anchor="start" x="1351.629" y="-15.4" font-family="sans-serif" font-size="14.00" fill="#000000"> &#160;Declarations</text>
<polygon fill="#8dd3c7" stroke="transparent" points="1441,-10 1441,-30 1461,-30 1461,-10 1441,-10"/>
<text text-anchor="start" x="1464.7251" y="-15.4" font-family="sans-serif" font-size="14.00" fill="#000000"> &#160;Module</text>
<polygon fill="#80b1d3" stroke="transparent" points="1527,-10 1527,-30 1547,-30 1547,-10 1527,-10"/>
<text text-anchor="start" x="1550.7812" y="-15.4" font-family="sans-serif" font-size="14.00" fill="#000000"> &#160;Bootstrap</text>
<polygon fill="#fdb462" stroke="transparent" points="1624,-10 1624,-30 1644,-30 1644,-10 1624,-10"/>
<text text-anchor="start" x="1647.6732" y="-15.4" font-family="sans-serif" font-size="14.00" fill="#000000"> &#160;Providers</text>
<polygon fill="#fb8072" stroke="transparent" points="1720,-10 1720,-30 1740,-30 1740,-10 1720,-10"/>
<text text-anchor="start" x="1743.7258" y="-15.4" font-family="sans-serif" font-size="14.00" fill="#000000"> &#160;Exports</text>
<g id="clust1" class="cluster">
<title>cluster_AppModule</title>
<polygon fill="none" stroke="#000000" stroke-dasharray="1,5" points="8,-70 8,-268 3116,-268 3116,-70 8,-70"/>
</g>
<g id="clust2" class="cluster">
<title>cluster_AppModule_declarations</title>
<polygon fill="none" stroke="#000000" points="1714,-78 1714,-130 3108,-130 3108,-78 1714,-78"/>
</g>
<g id="clust13" class="cluster">
<title>cluster_AppModule_imports</title>
<polygon fill="none" stroke="#000000" points="1143,-78 1143,-130 1706,-130 1706,-78 1143,-78"/>
</g>
<g id="clust15" class="cluster">
<title>cluster_AppModule_bootstrap</title>
<polygon fill="none" stroke="#000000" points="1583,-208 1583,-260 1707,-260 1707,-208 1583,-208"/>
</g>
<g id="clust16" class="cluster">
<title>cluster_AppModule_providers</title>
<polygon fill="none" stroke="#000000" points="16,-78 16,-130 1135,-130 1135,-78 16,-78"/>
</g>
<!-- AppComponent -->
<g id="node1" class="node">
<title>AppComponent</title>
<polygon fill="#ffffb3" stroke="#000000" points="3099.9399,-122 2994.0601,-122 2994.0601,-86 3099.9399,-86 3099.9399,-122"/>
<text text-anchor="middle" x="3047" y="-99.8" font-family="Times,serif" font-size="14.00" fill="#000000">AppComponent</text>
</g>
<!-- AppModule -->
<g id="node11" class="node">
<title>AppModule</title>
<polygon fill="#8dd3c7" stroke="#000000" points="1686.6571,-187 1683.6571,-191 1662.6571,-191 1659.6571,-187 1603.3429,-187 1603.3429,-151 1686.6571,-151 1686.6571,-187"/>
<text text-anchor="middle" x="1645" y="-164.8" font-family="Times,serif" font-size="14.00" fill="#000000">AppModule</text>
</g>
<!-- AppComponent&#45;&gt;AppModule -->
<g id="edge1" class="edge">
<title>AppComponent&#45;&gt;AppModule</title>
<path fill="none" stroke="#000000" d="M3047,-122.1532C3047,-145.7566 3047,-184 3047,-184 3047,-184 1696.9591,-184 1696.9591,-184"/>
<polygon fill="#000000" stroke="#000000" points="1696.9591,-180.5001 1686.9591,-184 1696.959,-187.5001 1696.9591,-180.5001"/>
</g>
<!-- FooterComponent -->
<g id="node2" class="node">
<title>FooterComponent</title>
<polygon fill="#ffffb3" stroke="#000000" points="2975.8809,-122 2858.1191,-122 2858.1191,-86 2975.8809,-86 2975.8809,-122"/>
<text text-anchor="middle" x="2917" y="-99.8" font-family="Times,serif" font-size="14.00" fill="#000000">FooterComponent</text>
</g>
<!-- FooterComponent&#45;&gt;AppModule -->
<g id="edge2" class="edge">
<title>FooterComponent&#45;&gt;AppModule</title>
<path fill="none" stroke="#000000" d="M2917,-122.2479C2917,-145.0179 2917,-181 2917,-181 2917,-181 1696.9594,-181 1696.9594,-181"/>
<polygon fill="#000000" stroke="#000000" points="1696.9595,-177.5001 1686.9594,-181 1696.9594,-184.5001 1696.9595,-177.5001"/>
</g>
<!-- HomeComponent -->
<g id="node3" class="node">
<title>HomeComponent</title>
<polygon fill="#ffffb3" stroke="#000000" points="2839.5451,-122 2724.4549,-122 2724.4549,-86 2839.5451,-86 2839.5451,-122"/>
<text text-anchor="middle" x="2782" y="-99.8" font-family="Times,serif" font-size="14.00" fill="#000000">HomeComponent</text>
</g>
<!-- HomeComponent&#45;&gt;AppModule -->
<g id="edge3" class="edge">
<title>HomeComponent&#45;&gt;AppModule</title>
<path fill="none" stroke="#000000" d="M2801.2574,-122.2921C2801.2574,-144.2057 2801.2574,-178 2801.2574,-178 2801.2574,-178 1696.8349,-178 1696.8349,-178"/>
<polygon fill="#000000" stroke="#000000" points="1696.8349,-174.5001 1686.8349,-178 1696.8349,-181.5001 1696.8349,-174.5001"/>
</g>
<!-- HomeComponent&#45;&gt;AppModule -->
<g id="edge10" class="edge">
<title>HomeComponent&#45;&gt;AppModule</title>
<path fill="none" stroke="#000000" d="M2762.7426,-122.2843C2762.7426,-143.3211 2762.7426,-175 2762.7426,-175 2762.7426,-175 1696.7769,-175 1696.7769,-175"/>
<polygon fill="#000000" stroke="#000000" points="1696.7769,-171.5001 1686.7769,-175 1696.7768,-178.5001 1696.7769,-171.5001"/>
</g>
<!-- FavoritoComponent -->
<g id="node4" class="node">
<title>FavoritoComponent</title>
<polygon fill="#ffffb3" stroke="#000000" points="2706.2716,-122 2577.7284,-122 2577.7284,-86 2706.2716,-86 2706.2716,-122"/>
<text text-anchor="middle" x="2642" y="-99.8" font-family="Times,serif" font-size="14.00" fill="#000000">FavoritoComponent</text>
</g>
<!-- FavoritoComponent&#45;&gt;AppModule -->
<g id="edge4" class="edge">
<title>FavoritoComponent&#45;&gt;AppModule</title>
<path fill="none" stroke="#000000" d="M2642,-122.2228C2642,-142.3652 2642,-172 2642,-172 2642,-172 1696.8862,-172 1696.8862,-172"/>
<polygon fill="#000000" stroke="#000000" points="1696.8863,-168.5001 1686.8862,-172 1696.8862,-175.5001 1696.8863,-168.5001"/>
</g>
<!-- ClienteComponent -->
<g id="node5" class="node">
<title>ClienteComponent</title>
<polygon fill="#ffffb3" stroke="#000000" points="2559.7702,-122 2438.2298,-122 2438.2298,-86 2559.7702,-86 2559.7702,-122"/>
<text text-anchor="middle" x="2499" y="-99.8" font-family="Times,serif" font-size="14.00" fill="#000000">ClienteComponent</text>
</g>
<!-- ClienteComponent&#45;&gt;AppModule -->
<g id="edge5" class="edge">
<title>ClienteComponent&#45;&gt;AppModule</title>
<path fill="none" stroke="#000000" d="M2499,-122.1061C2499,-141.3391 2499,-169 2499,-169 2499,-169 1696.7683,-169 1696.7683,-169"/>
<polygon fill="#000000" stroke="#000000" points="1696.7683,-165.5001 1686.7683,-169 1696.7683,-172.5001 1696.7683,-165.5001"/>
</g>
<!-- ContactoComponent -->
<g id="node6" class="node">
<title>ContactoComponent</title>
<polygon fill="#ffffb3" stroke="#000000" points="2419.8795,-122 2288.1205,-122 2288.1205,-86 2419.8795,-86 2419.8795,-122"/>
<text text-anchor="middle" x="2354" y="-99.8" font-family="Times,serif" font-size="14.00" fill="#000000">ContactoComponent</text>
</g>
<!-- ContactoComponent&#45;&gt;AppModule -->
<g id="edge6" class="edge">
<title>ContactoComponent&#45;&gt;AppModule</title>
<path fill="none" stroke="#000000" d="M2354,-122.2667C2354,-140.5552 2354,-166 2354,-166 2354,-166 1696.7042,-166 1696.7042,-166"/>
<polygon fill="#000000" stroke="#000000" points="1696.7043,-162.5001 1686.7042,-166 1696.7042,-169.5001 1696.7043,-162.5001"/>
</g>
<!-- PostComponent -->
<g id="node7" class="node">
<title>PostComponent</title>
<polygon fill="#ffffb3" stroke="#000000" points="2269.9512,-122 2164.0488,-122 2164.0488,-86 2269.9512,-86 2269.9512,-122"/>
<text text-anchor="middle" x="2217" y="-99.8" font-family="Times,serif" font-size="14.00" fill="#000000">PostComponent</text>
</g>
<!-- PostComponent&#45;&gt;AppModule -->
<g id="edge7" class="edge">
<title>PostComponent&#45;&gt;AppModule</title>
<path fill="none" stroke="#000000" d="M2217,-122.0225C2217,-139.3734 2217,-163 2217,-163 2217,-163 1697.0605,-163 1697.0605,-163"/>
<polygon fill="#000000" stroke="#000000" points="1697.0606,-159.5001 1687.0605,-163 1697.0605,-166.5001 1697.0606,-159.5001"/>
</g>
<!-- NotFoundComponent -->
<g id="node8" class="node">
<title>NotFoundComponent</title>
<polygon fill="#ffffb3" stroke="#000000" points="2146.1122,-122 2007.8878,-122 2007.8878,-86 2146.1122,-86 2146.1122,-122"/>
<text text-anchor="middle" x="2077" y="-99.8" font-family="Times,serif" font-size="14.00" fill="#000000">NotFoundComponent</text>
</g>
<!-- NotFoundComponent&#45;&gt;AppModule -->
<g id="edge8" class="edge">
<title>NotFoundComponent&#45;&gt;AppModule</title>
<path fill="none" stroke="#000000" d="M2077,-122.027C2077,-138.3976 2077,-160 2077,-160 2077,-160 1696.8145,-160 1696.8145,-160"/>
<polygon fill="#000000" stroke="#000000" points="1696.8145,-156.5001 1686.8145,-160 1696.8145,-163.5001 1696.8145,-156.5001"/>
</g>
<!-- VistaPostComponent -->
<g id="node9" class="node">
<title>VistaPostComponent</title>
<polygon fill="#ffffb3" stroke="#000000" points="1989.4972,-122 1854.5028,-122 1854.5028,-86 1989.4972,-86 1989.4972,-122"/>
<text text-anchor="middle" x="1922" y="-99.8" font-family="Times,serif" font-size="14.00" fill="#000000">VistaPostComponent</text>
</g>
<!-- VistaPostComponent&#45;&gt;AppModule -->
<g id="edge9" class="edge">
<title>VistaPostComponent&#45;&gt;AppModule</title>
<path fill="none" stroke="#000000" d="M1922,-122.2396C1922,-137.5706 1922,-157 1922,-157 1922,-157 1696.7696,-157 1696.7696,-157"/>
<polygon fill="#000000" stroke="#000000" points="1696.7696,-153.5001 1686.7696,-157 1696.7696,-160.5001 1696.7696,-153.5001"/>
</g>
<!-- LoginComponent -->
<g id="node10" class="node">
<title>LoginComponent</title>
<polygon fill="#ffffb3" stroke="#000000" points="1836.2758,-122 1721.7242,-122 1721.7242,-86 1836.2758,-86 1836.2758,-122"/>
<text text-anchor="middle" x="1779" y="-99.8" font-family="Times,serif" font-size="14.00" fill="#000000">LoginComponent</text>
</g>
<!-- LoginComponent&#45;&gt;AppModule -->
<g id="edge11" class="edge">
<title>LoginComponent&#45;&gt;AppModule</title>
<path fill="none" stroke="#000000" d="M1779,-122.0511C1779,-136.373 1779,-154 1779,-154 1779,-154 1696.6639,-154 1696.6639,-154"/>
<polygon fill="#000000" stroke="#000000" points="1696.6639,-150.5001 1686.6639,-154 1696.6639,-157.5001 1696.6639,-150.5001"/>
</g>
<!-- AppComponent  -->
<g id="node17" class="node">
<title>AppComponent </title>
<polygon fill="#80b1d3" stroke="#000000" points="1699.439,-252 1590.561,-252 1590.561,-216 1699.439,-216 1699.439,-252"/>
<text text-anchor="middle" x="1645" y="-229.8" font-family="Times,serif" font-size="14.00" fill="#000000">AppComponent </text>
</g>
<!-- AppModule&#45;&gt;AppComponent  -->
<g id="edge17" class="edge">
<title>AppModule&#45;&gt;AppComponent </title>
<path fill="none" stroke="#000000" stroke-dasharray="1,5" d="M1645,-187.1061C1645,-187.1061 1645,-205.991 1645,-205.991"/>
<polygon fill="#000000" stroke="#000000" points="1641.5001,-205.9909 1645,-215.991 1648.5001,-205.991 1641.5001,-205.9909"/>
</g>
<!-- BrowserModule -->
<g id="node12" class="node">
<title>BrowserModule</title>
<polygon fill="#8dd3c7" stroke="#000000" points="1698.4734,-122 1695.4734,-126 1674.4734,-126 1671.4734,-122 1591.5266,-122 1591.5266,-86 1698.4734,-86 1698.4734,-122"/>
<text text-anchor="middle" x="1645" y="-99.8" font-family="Times,serif" font-size="14.00" fill="#000000">BrowserModule</text>
</g>
<!-- BrowserModule&#45;&gt;AppModule -->
<g id="edge12" class="edge">
<title>BrowserModule&#45;&gt;AppModule</title>
<path fill="none" stroke="#000000" d="M1645,-122.1061C1645,-122.1061 1645,-140.991 1645,-140.991"/>
<polygon fill="#000000" stroke="#000000" points="1641.5001,-140.9909 1645,-150.991 1648.5001,-140.991 1641.5001,-140.9909"/>
</g>
<!-- FormsModule -->
<g id="node13" class="node">
<title>FormsModule</title>
<polygon fill="#8dd3c7" stroke="#000000" points="1573.8288,-122 1570.8288,-126 1549.8288,-126 1546.8288,-122 1478.1712,-122 1478.1712,-86 1573.8288,-86 1573.8288,-122"/>
<text text-anchor="middle" x="1526" y="-99.8" font-family="Times,serif" font-size="14.00" fill="#000000">FormsModule</text>
</g>
<!-- FormsModule&#45;&gt;AppModule -->
<g id="edge13" class="edge">
<title>FormsModule&#45;&gt;AppModule</title>
<path fill="none" stroke="#000000" d="M1526,-122.0511C1526,-136.373 1526,-154 1526,-154 1526,-154 1593.0451,-154 1593.0451,-154"/>
<polygon fill="#000000" stroke="#000000" points="1593.0451,-157.5001 1603.0451,-154 1593.045,-150.5001 1593.0451,-157.5001"/>
</g>
<!-- HttpClientModule -->
<g id="node14" class="node">
<title>HttpClientModule</title>
<polygon fill="#8dd3c7" stroke="#000000" points="1460.1611,-122 1457.1611,-126 1436.1611,-126 1433.1611,-122 1341.8389,-122 1341.8389,-86 1460.1611,-86 1460.1611,-122"/>
<text text-anchor="middle" x="1401" y="-99.8" font-family="Times,serif" font-size="14.00" fill="#000000">HttpClientModule</text>
</g>
<!-- HttpClientModule&#45;&gt;AppModule -->
<g id="edge14" class="edge">
<title>HttpClientModule&#45;&gt;AppModule</title>
<path fill="none" stroke="#000000" d="M1401,-122.2396C1401,-137.5706 1401,-157 1401,-157 1401,-157 1593.3321,-157 1593.3321,-157"/>
<polygon fill="#000000" stroke="#000000" points="1593.3322,-160.5001 1603.3321,-157 1593.3321,-153.5001 1593.3322,-160.5001"/>
</g>
<!-- routing -->
<g id="node15" class="node">
<title>routing</title>
<polygon fill="#8dd3c7" stroke="#000000" points="1323.4435,-122 1320.4435,-126 1299.4435,-126 1296.4435,-122 1266.5565,-122 1266.5565,-86 1323.4435,-86 1323.4435,-122"/>
<text text-anchor="middle" x="1295" y="-99.8" font-family="Times,serif" font-size="14.00" fill="#000000">routing</text>
</g>
<!-- routing&#45;&gt;AppModule -->
<g id="edge15" class="edge">
<title>routing&#45;&gt;AppModule</title>
<path fill="none" stroke="#000000" d="M1295,-122.027C1295,-138.3976 1295,-160 1295,-160 1295,-160 1593.1295,-160 1593.1295,-160"/>
<polygon fill="#000000" stroke="#000000" points="1593.1295,-163.5001 1603.1295,-160 1593.1294,-156.5001 1593.1295,-163.5001"/>
</g>
<!-- SharedModule -->
<g id="node16" class="node">
<title>SharedModule</title>
<polygon fill="#8dd3c7" stroke="#000000" points="1249.4231,-122 1246.4231,-126 1225.4231,-126 1222.4231,-122 1150.5769,-122 1150.5769,-86 1249.4231,-86 1249.4231,-122"/>
<text text-anchor="middle" x="1200" y="-99.8" font-family="Times,serif" font-size="14.00" fill="#000000">SharedModule</text>
</g>
<!-- SharedModule&#45;&gt;AppModule -->
<g id="edge16" class="edge">
<title>SharedModule&#45;&gt;AppModule</title>
<path fill="none" stroke="#000000" d="M1200,-122.0225C1200,-139.3734 1200,-163 1200,-163 1200,-163 1593.1355,-163 1593.1355,-163"/>
<polygon fill="#000000" stroke="#000000" points="1593.1355,-166.5001 1603.1355,-163 1593.1354,-159.5001 1593.1355,-166.5001"/>
</g>
<!-- ClientesService -->
<g id="node18" class="node">
<title>ClientesService</title>
<ellipse fill="#fdb462" stroke="#000000" cx="1055" cy="-104" rx="71.7815" ry="18"/>
<text text-anchor="middle" x="1055" y="-99.8" font-family="Times,serif" font-size="14.00" fill="#000000">ClientesService</text>
</g>
<!-- ClientesService&#45;&gt;AppModule -->
<g id="edge18" class="edge">
<title>ClientesService&#45;&gt;AppModule</title>
<path fill="none" stroke="#000000" d="M1055,-122.2667C1055,-140.5552 1055,-166 1055,-166 1055,-166 1593.0416,-166 1593.0416,-166"/>
<polygon fill="#000000" stroke="#000000" points="1593.0417,-169.5001 1603.0416,-166 1593.0416,-162.5001 1593.0417,-169.5001"/>
</g>
<!-- AuthGuard -->
<g id="node19" class="node">
<title>AuthGuard</title>
<ellipse fill="#fdb462" stroke="#000000" cx="911" cy="-104" rx="54.4566" ry="18"/>
<text text-anchor="middle" x="911" y="-99.8" font-family="Times,serif" font-size="14.00" fill="#000000">AuthGuard</text>
</g>
<!-- AuthGuard&#45;&gt;AppModule -->
<g id="edge19" class="edge">
<title>AuthGuard&#45;&gt;AppModule</title>
<path fill="none" stroke="#000000" d="M911,-122.1061C911,-141.3391 911,-169 911,-169 911,-169 1593.1677,-169 1593.1677,-169"/>
<polygon fill="#000000" stroke="#000000" points="1593.1677,-172.5001 1603.1677,-169 1593.1676,-165.5001 1593.1677,-172.5001"/>
</g>
<!-- PostService -->
<g id="node20" class="node">
<title>PostService</title>
<ellipse fill="#fdb462" stroke="#000000" cx="782" cy="-104" rx="56.7561" ry="18"/>
<text text-anchor="middle" x="782" y="-99.8" font-family="Times,serif" font-size="14.00" fill="#000000">PostService</text>
</g>
<!-- PostService&#45;&gt;AppModule -->
<g id="edge20" class="edge">
<title>PostService&#45;&gt;AppModule</title>
<path fill="none" stroke="#000000" d="M782,-122.2228C782,-142.3652 782,-172 782,-172 782,-172 1593.0841,-172 1593.0841,-172"/>
<polygon fill="#000000" stroke="#000000" points="1593.0841,-175.5001 1603.0841,-172 1593.084,-168.5001 1593.0841,-175.5001"/>
</g>
<!-- AuthenticationService -->
<g id="node21" class="node">
<title>AuthenticationService</title>
<ellipse fill="#fdb462" stroke="#000000" cx="610" cy="-104" rx="97.2683" ry="18"/>
<text text-anchor="middle" x="610" y="-99.8" font-family="Times,serif" font-size="14.00" fill="#000000">AuthenticationService</text>
</g>
<!-- AuthenticationService&#45;&gt;AppModule -->
<g id="edge21" class="edge">
<title>AuthenticationService&#45;&gt;AppModule</title>
<path fill="none" stroke="#000000" d="M610,-122.2843C610,-143.3211 610,-175 610,-175 610,-175 1593.1449,-175 1593.1449,-175"/>
<polygon fill="#000000" stroke="#000000" points="1593.1449,-178.5001 1603.1449,-175 1593.1448,-171.5001 1593.1449,-178.5001"/>
</g>
<!-- UserService -->
<g id="node22" class="node">
<title>UserService</title>
<ellipse fill="#fdb462" stroke="#000000" cx="436" cy="-104" rx="58.4415" ry="18"/>
<text text-anchor="middle" x="436" y="-99.8" font-family="Times,serif" font-size="14.00" fill="#000000">UserService</text>
</g>
<!-- UserService&#45;&gt;AppModule -->
<g id="edge22" class="edge">
<title>UserService&#45;&gt;AppModule</title>
<path fill="none" stroke="#000000" d="M436,-122.2921C436,-144.2057 436,-178 436,-178 436,-178 1593.0324,-178 1593.0324,-178"/>
<polygon fill="#000000" stroke="#000000" points="1593.0324,-181.5001 1603.0324,-178 1593.0324,-174.5001 1593.0324,-181.5001"/>
</g>
<!-- MockBackend -->
<g id="node23" class="node">
<title>MockBackend</title>
<ellipse fill="#fdb462" stroke="#000000" cx="292" cy="-104" rx="67.2004" ry="18"/>
<text text-anchor="middle" x="292" y="-99.8" font-family="Times,serif" font-size="14.00" fill="#000000">MockBackend</text>
</g>
<!-- MockBackend&#45;&gt;AppModule -->
<g id="edge23" class="edge">
<title>MockBackend&#45;&gt;AppModule</title>
<path fill="none" stroke="#000000" d="M292,-122.2479C292,-145.0179 292,-181 292,-181 292,-181 1593.0237,-181 1593.0237,-181"/>
<polygon fill="#000000" stroke="#000000" points="1593.0238,-184.5001 1603.0237,-181 1593.0237,-177.5001 1593.0238,-184.5001"/>
</g>
<!-- BaseRequestOptions -->
<g id="node24" class="node">
<title>BaseRequestOptions</title>
<ellipse fill="#fdb462" stroke="#000000" cx="115" cy="-104" rx="91.4905" ry="18"/>
<text text-anchor="middle" x="115" y="-99.8" font-family="Times,serif" font-size="14.00" fill="#000000">BaseRequestOptions</text>
</g>
<!-- BaseRequestOptions&#45;&gt;AppModule -->
<g id="edge24" class="edge">
<title>BaseRequestOptions&#45;&gt;AppModule</title>
<path fill="none" stroke="#000000" d="M115,-122.1532C115,-145.7566 115,-184 115,-184 115,-184 1593.2827,-184 1593.2827,-184"/>
<polygon fill="#000000" stroke="#000000" points="1593.2827,-187.5001 1603.2827,-184 1593.2827,-180.5001 1593.2827,-187.5001"/>
</g>
</g>
</svg>
